<?xml version="1.0" standalone="no"?><!DOCTYPE svg PUBLIC "-//W3C//DTD SVG 1.1//EN" "http://www.w3.org/Graphics/SVG/1.1/DTD/svg11.dtd"><svg class="icon" width="48px" height="45.94px" viewBox="0 0 1070 1024" version="1.1" xmlns="http://www.w3.org/2000/svg"><path fill="#feaa48" d="M372.959714 791.461295a116.269352 116.269352 0 1 1 0 232.538705 116.269352 116.269352 0 0 1 0-232.538705z m534.792514 0a116.269352 116.269352 0 1 1 0 232.538705 116.269352 116.269352 0 0 1 0-232.538705z m-534.839021 46.507741a69.761611 69.761611 0 1 0 0 139.523223 69.761611 69.761611 0 0 0 0-139.523223z m534.839021 0a69.761611 69.761611 0 1 0 0 139.523223 69.761611 69.761611 0 0 0 0-139.523223zM28.476877 0.550652L32.430035 1.713345l168.125483 65.110838a69.761611 69.761611 0 0 1 42.83363 49.763282l1.209201 6.883146 8.464409 69.715104c8.975994-4.046173 19.161189-6.325053 29.997493-6.325053h700.871657c41.205859 0 72.412553 32.555419 67.715271 72.505568l-49.437729 418.569669c-4.371728 36.973654-35.345883 66.971147-71.110336 66.971147H335.98606c-35.717945 0-66.738608-29.997493-71.110336-66.971147l-39.671103-335.320812a23.114347 23.114347 0 0 1-0.558093-1.534756l-0.883647-4.092681-25.300211-207.889602a23.25387 23.25387 0 0 0-10.882811-17.021833l-3.767127-1.86031L15.687248 45.105068A23.25387 23.25387 0 0 1 28.476877 0.504144zM983.978416 233.368403H283.106759c-14.138353 0-22.835301 9.069009-21.486577 20.509914l49.391221 418.569669c1.720786 14.4174 13.673276 25.997827 24.92815 25.997827h595.159561c11.254873 0 23.25387-11.626935 24.928149-25.997827l49.391221-418.569669c1.395232-11.440904-7.348223-20.509914-21.440068-20.509914zM395.376446 395.726927l0.744123 4.139189 16.27771 181.752252a23.25387 23.25387 0 0 1-45.577586 8.278378l-0.790632-4.185697-16.277709-181.705744a23.25387 23.25387 0 0 1 45.577586-8.278378z" /></svg>