<?xml version="1.0" standalone="no"?><!DOCTYPE svg PUBLIC "-//W3C//DTD SVG 1.1//EN" "http://www.w3.org/Graphics/SVG/1.1/DTD/svg11.dtd"><svg class="icon" width="48px" height="48.00px" viewBox="0 0 1024 1024" version="1.1" xmlns="http://www.w3.org/2000/svg"><path fill="#666666" d="M1008.128 389.12c0.512-4.608 0-9.216-1.024-13.824l-73.216-248.32c-12.8-40.96-49.664-68.096-92.672-68.096H182.784c-45.056 0-83.456 30.208-93.696 72.192L16.384 378.88c-0.512 1.536 0 3.072-0.512 5.12 0 1.536-1.024 3.072-1.024 4.608 0 1.024 0.512 2.048 0.512 3.072v2.048c1.536 43.52 21.504 81.92 52.224 108.544v357.376c0 64.512 60.416 117.248 134.144 117.248h625.664c74.24 0 134.144-52.736 134.144-117.248V502.272c0-2.048-0.512-3.584-1.024-5.12 29.184-27.136 47.616-65.536 47.616-108.032zM155.136 148.48c3.072-12.8 14.848-22.016 27.648-22.016h658.432c12.8 0 23.552 8.192 27.136 19.456l71.68 243.2c0 45.056-36.352 81.408-81.408 81.408s-81.408-36.352-81.408-81.408a34.304 34.304 0 0 0-68.608 0c0 45.056-36.352 81.408-81.408 81.408s-81.408-36.352-81.408-81.408a34.304 34.304 0 0 0-68.608 0c0 45.056-36.352 81.408-81.408 81.408S314.368 434.176 314.368 389.12A34.304 34.304 0 0 0 245.76 389.12c0 45.056-36.352 81.408-81.408 81.408-43.52 0-79.36-34.816-80.896-77.824l71.68-244.224z m-19.456 710.656v-323.584c9.216 2.048 18.944 3.072 28.672 3.072 46.592 0 88.064-22.016 115.712-55.808 9.728 12.288 21.504 23.04 34.816 31.744v394.24H201.728c-35.328-0.512-66.048-23.04-66.048-49.664z m757.76 0c0 26.624-30.208 49.152-66.048 49.152H383.488v-371.2c4.096 0.512 8.192 1.024 12.8 1.024 46.592 0 88.064-22.016 115.712-55.808 27.648 33.792 68.608 55.808 115.712 55.808 46.592 0 88.064-22.016 115.712-55.808 27.648 33.792 68.608 55.808 115.712 55.808 12.288 0 24.064-2.048 35.328-4.608v325.632z" /></svg>