<?xml version="1.0" standalone="no"?><!DOCTYPE svg PUBLIC "-//W3C//DTD SVG 1.1//EN" "http://www.w3.org/Graphics/SVG/1.1/DTD/svg11.dtd"><svg class="icon" width="48px" height="48.00px" viewBox="0 0 1024 1024" version="1.1" xmlns="http://www.w3.org/2000/svg"><path fill="#feaa48" d="M472.064 785.408c10.24 9.728 23.552 14.848 36.864 14.848 13.312 0 26.624-5.12 36.864-14.336 54.272-51.2 272.896-289.28 272.896-438.272 0-171.008-138.752-309.76-309.76-309.76S199.168 176.64 199.168 347.136c0 149.504 218.624 387.584 272.896 438.272z m36.864-679.424c133.12 0 241.664 108.544 241.664 241.664 0 103.424-162.816 301.056-241.664 378.88-78.848-77.824-241.664-275.456-241.664-378.88 0-133.632 108.544-241.664 241.664-241.664zM930.304 957.44c-16.896 21.504-41.984 34.304-69.12 34.304H156.672c-27.136 0-52.736-12.288-69.12-34.304-16.896-22.016-22.016-49.152-14.848-75.776l43.008-196.096c10.752-39.424 45.056-66.048 84.48-66.048h34.816a34.304 34.304 0 0 1 0 68.608h-34.816c-8.704 0-15.872 5.632-18.432 13.824l-43.008 196.096c-2.56 9.216 0.512 15.36 3.072 17.92 2.048 2.56 7.168 7.68 14.848 7.68h704.512c8.192 0 12.8-4.608 14.848-7.68 2.048-2.56 5.632-8.704 3.072-16.384l-44.032-199.168c-2.048-6.656-9.216-12.288-17.92-12.288h-28.16a34.304 34.304 0 0 1 0-68.608h28.16c39.424 0 73.728 26.624 84.48 64.512l44.032 199.168c6.656 25.088 1.536 52.736-15.36 74.24zM508.928 429.568c-26.112 0-47.104-20.992-47.104-47.104s20.992-47.104 47.104-47.104 47.104 20.992 47.104 47.104-20.992 47.104-47.104 47.104z" /></svg>