<?xml version="1.0" standalone="no"?><!DOCTYPE svg PUBLIC "-//W3C//DTD SVG 1.1//EN" "http://www.w3.org/Graphics/SVG/1.1/DTD/svg11.dtd"><svg class="icon" width="48px" height="48.00px" viewBox="0 0 1024 1024" version="1.1" xmlns="http://www.w3.org/2000/svg"><path fill="#feaa48" d="M907.776 231.424H768c41.472-69.12 43.008-141.312 1.536-179.712-52.224-48.64-151.552-23.552-225.792 56.832-12.288 13.312-22.528 27.136-31.744 41.472-9.216-14.336-19.456-28.672-31.744-41.472C406.016 28.16 307.2 3.584 254.976 51.712c-41.984 38.4-39.936 110.592 1.024 179.712H116.224C60.928 231.424 15.36 276.48 15.36 332.288v76.288C15.36 456.704 49.664 497.152 94.72 506.88v389.12c0 61.44 49.664 111.104 111.104 111.104h611.84c61.44 0 111.104-49.664 111.104-111.104V506.88c45.568-9.728 79.36-50.176 79.36-98.304V332.288c0.512-55.808-45.056-100.864-100.352-100.864z m-184.832-129.536c17.408 16.384 9.728 67.072-29.696 117.76-3.072 3.584-4.608 7.68-6.144 11.776H547.84c7.68-25.6 24.064-52.736 45.568-76.288 52.736-56.832 112.128-69.632 129.536-53.248z m-392.192 117.76c-39.424-50.176-47.104-101.376-29.696-117.76 17.408-16.384 76.8-3.584 129.024 53.248 22.016 23.552 37.888 51.2 45.568 76.288H336.384c-1.024-4.096-3.072-8.192-5.632-11.776zM163.328 896.512V509.44h314.88v430.08H206.336c-24.064-0.512-43.008-19.456-43.008-43.008z m654.336 42.496h-271.872v-430.08h314.88V896c0 24.064-18.944 43.008-43.008 43.008z m122.368-530.432c0 17.92-14.848 32.768-32.768 32.768H116.224c-17.92 0-32.768-14.848-32.768-32.768V332.288c0-17.92 14.848-32.768 32.768-32.768h791.552c17.92 0 32.768 14.848 32.768 32.768v76.288z" /></svg>