<?xml version="1.0" standalone="no"?><!DOCTYPE svg PUBLIC "-//W3C//DTD SVG 1.1//EN" "http://www.w3.org/Graphics/SVG/1.1/DTD/svg11.dtd"><svg class="icon" width="48px" height="48.00px" viewBox="0 0 1024 1024" version="1.1" xmlns="http://www.w3.org/2000/svg"><path fill="#feaa48" d="M507.904 997.376c-6.144 0-11.776-1.536-16.896-4.608l-381.44-220.16c-10.752-6.144-16.896-17.408-16.896-29.696V302.08c0-12.288 6.656-23.552 16.896-29.696l381.44-220.16c10.752-6.144 23.552-6.144 34.304 0l381.952 220.16c10.752 6.144 16.896 17.408 16.896 29.696v440.832c0 12.288-6.656 23.552-16.896 29.696l-381.952 220.16c-5.632 3.072-11.264 4.608-17.408 4.608z m-347.136-274.432l347.648 200.704 347.648-200.704V321.536l-348.16-200.192-347.136 200.192v401.408z m348.672-55.296c-80.384 0-145.408-65.024-145.408-145.408s65.024-145.408 145.408-145.408 145.408 65.024 145.408 145.408-65.536 145.408-145.408 145.408z m0-222.208c-42.496 0-77.312 34.816-77.312 77.312s34.816 77.312 77.312 77.312 76.8-34.816 76.8-77.312-34.304-77.312-76.8-77.312z" /></svg>