<?xml version="1.0" standalone="no"?><!DOCTYPE svg PUBLIC "-//W3C//DTD SVG 1.1//EN" "http://www.w3.org/Graphics/SVG/1.1/DTD/svg11.dtd"><svg class="icon" width="48px" height="48.00px" viewBox="0 0 1024 1024" version="1.1" xmlns="http://www.w3.org/2000/svg"><path fill="#feaa48" d="M584.192 641.536c32.256-45.056 51.2-99.328 68.608-154.624 25.088-72.704 32.256-177.664-23.552-256-31.232-44.032-95.744-96.256-223.744-96.256-95.232 0-166.4 29.184-211.456 86.528-69.632 88.576-49.664 210.944-37.888 259.072 14.848 60.416 39.424 113.664 72.192 154.624-80.896 25.6-213.504 86.016-213.504 214.016 0 99.84 127.488 148.48 390.656 148.48 133.12 0 410.624 0 410.624-148.48-0.512-128.512-145.92-185.344-231.936-207.36z m-179.2 287.744c-237.568 0-322.048-43.008-322.048-80.384 0-122.88 215.04-160.768 217.6-161.28 13.312-2.048 24.064-12.288 27.648-25.088 3.584-13.312-1.536-27.136-11.776-35.328-41.984-33.28-75.776-92.16-93.184-162.816-19.456-80.384-10.24-155.648 25.088-200.704 31.744-39.936 84.48-60.416 157.696-60.416 79.36 0 136.192 22.528 167.936 67.584 40.448 56.832 34.304 137.216 14.336 195.072-26.112 82.432-48.128 134.656-91.136 171.008-10.24 8.704-14.336 22.528-10.752 35.84 3.584 12.8 14.848 22.528 28.16 24.064 2.56 0.512 232.96 34.816 232.96 152.576 0 36.352-59.392 79.872-342.528 79.872z m588.8-260.096a34.304 34.304 0 0 1-68.608 0c0-89.6-181.76-117.248-183.296-117.248-13.312-2.048-24.576-11.264-28.16-24.064s0.512-26.624 10.752-35.328c33.792-28.672 51.2-70.144 72.192-136.192 15.36-45.056 20.992-108.544-10.752-152.576-24.576-34.816-68.608-52.224-131.072-52.224a34.304 34.304 0 0 1 0-68.608c107.008 0 160.256 44.032 186.88 80.896 46.592 65.024 40.96 153.088 19.968 213.504-13.312 42.496-27.648 83.456-51.2 119.296 71.68 20.48 183.296 68.096 183.296 172.544z" /></svg>