<?xml version="1.0" standalone="no"?><!DOCTYPE svg PUBLIC "-//W3C//DTD SVG 1.1//EN" "http://www.w3.org/Graphics/SVG/1.1/DTD/svg11.dtd"><svg class="icon" width="48px" height="48.00px" viewBox="0 0 1024 1024" version="1.1" xmlns="http://www.w3.org/2000/svg"><path fill="#666666" d="M512 0C229.376 0 0.512 229.376 0.512 512s229.376 512 512 512 512-229.376 512-512C1024 229.376 794.624 0 512 0z m0 955.392c-244.736 0-443.392-199.168-443.392-443.392 0-244.736 199.168-443.392 443.392-443.392s443.392 199.168 443.392 443.392c0.512 244.224-198.656 443.392-443.392 443.392z m163.328-638.976c13.312 13.312 13.312 34.816 0 48.128l-113.152 113.152h61.44a34.304 34.304 0 0 1 0 68.608h-77.312v49.152h80.384a34.304 34.304 0 0 1 0 68.608h-80.384v93.184a34.304 34.304 0 0 1-68.608 0v-93.184H397.824a34.304 34.304 0 0 1 0-68.608h80.384v-49.152H394.24a34.304 34.304 0 0 1 0-68.608h68.096L349.184 364.544c-13.312-13.312-13.312-34.816 0-48.128s34.816-13.312 48.128 0L512 431.104l114.688-114.688c13.824-13.312 35.328-13.312 48.64 0z" /></svg>