<?xml version="1.0" standalone="no"?><!DOCTYPE svg PUBLIC "-//W3C//DTD SVG 1.1//EN" "http://www.w3.org/Graphics/SVG/1.1/DTD/svg11.dtd"><svg class="icon" width="48px" height="48.00px" viewBox="0 0 1024 1024" version="1.1" xmlns="http://www.w3.org/2000/svg"><path fill="#feaa48" d="M891.904 145.92H128.512c-55.808 0-101.376 45.568-101.376 101.376v573.952c0 55.808 45.568 101.376 101.376 101.376h763.392c55.808 0 101.376-45.568 101.376-101.376V247.296c0-55.808-45.568-101.376-101.376-101.376z m-10.24 68.096l-352.768 285.184c-1.024 0.512-2.048 1.536-2.56 2.56-8.704 8.704-23.04 8.704-31.744 0l-2.56-2.56-352.768-285.184h742.4z m10.24 640.512H128.512c-18.432 0-32.768-14.848-32.768-32.768V266.752l351.744 284.672c17.408 16.896 39.936 25.088 62.464 25.088 22.528 0 45.056-8.192 62.464-25.088l351.744-284.672v554.496c0.512 18.432-13.824 33.28-32.256 33.28z" /></svg>