<?xml version="1.0" standalone="no"?><!DOCTYPE svg PUBLIC "-//W3C//DTD SVG 1.1//EN" "http://www.w3.org/Graphics/SVG/1.1/DTD/svg11.dtd"><svg class="icon" width="48px" height="48.00px" viewBox="0 0 1024 1024" version="1.1" xmlns="http://www.w3.org/2000/svg"><path fill="#666666" d="M963.550202 973.040768c26.355651 0 42.124279 14.326279 52.932854 27.262206V0H596.931299v1000.312017c10.808575-12.935927 26.581724-27.271248 52.946418-27.271249 32.147654 0 48.549288 21.316472 59.400817 35.421199 10.058011 13.06931 13.080614 15.538033 19.024087 15.538033 5.938951 0 8.957033-2.468723 19.012782-15.535772 10.85605-14.104727 27.257684-35.421199 59.403078-35.421199s48.549288 21.316472 59.400817 35.421199c10.05575 13.06931 13.076092 15.535772 19.017304 15.535772 5.93443 0 8.954772-2.468723 19.010522-15.535772 10.858311-14.106988 27.253163-35.42346 59.403078-35.42346zM433.864471 414.883338h112.107597v304.900832h-112.107597zM433.864471 59.027796h112.107597v304.898571h-112.107597zM53.378218 719.78417h329.529282V414.883338H7.516944v259.037298c0 25.288584 20.574951 45.863535 45.861274 45.863534zM382.9075 59.027796H53.378218c-25.288584 0-45.861274 20.574951-45.861274 45.861273v259.037298h375.390556V59.027796z" /></svg>