<?xml version="1.0" standalone="no"?><!DOCTYPE svg PUBLIC "-//W3C//DTD SVG 1.1//EN" "http://www.w3.org/Graphics/SVG/1.1/DTD/svg11.dtd"><svg class="icon" width="48px" height="48.00px" viewBox="0 0 1024 1024" version="1.1" xmlns="http://www.w3.org/2000/svg"><path fill="#feaa48" d="M982.271559 603.828739h-32.806215V246.742359c0-83.294887-67.766141-151.061028-151.065182-151.061029-77.656189 0-141.787811 58.904144-150.122283 134.373391h-103.484126c-21.636816 0-39.178047 17.539154-39.178047 39.173893 0 21.636816 17.539154 39.180124 39.178047 39.180123h244.100582c21.638893 0 39.178047-17.543308 39.178047-39.180123 0-21.634739-17.539154-39.173893-39.178047-39.173893H690.143393c8.060327-52.499081 53.537515-92.836021 108.256769-92.836021 60.393258 0 109.527813 49.132477 109.527813 109.523659V603.828739H41.728441C18.683509 603.828739 0 622.508095 0 645.555104c0 23.047009 18.683509 41.730518 41.728441 41.730518h10.457033c5.140249 38.72529 18.864196 140.934218 26.332615 185.034443 5.163095 30.49466 25.071956 56.000681 56.000682 56.000681h754.964535c30.928725 0 51.149117-25.458254 56.000681-56.000681 7.007354-44.098148 21.009601-146.307076 26.27654-185.034443h10.511032c23.044933 0 41.728441-18.683509 41.728441-41.730518s-18.683509-41.726364-41.728441-41.726365z" /></svg>